<?xml version="1.0" encoding="utf-8"?>
<!-- Generator: Adobe Illustrator 21.0.0, SVG Export Plug-In . SVG Version: 6.00 Build 0)  -->
<svg version="1.1" id="Capa_1" xmlns="http://www.w3.org/2000/svg" xmlns:xlink="http://www.w3.org/1999/xlink" x="0px" y="0px"
	 viewBox="0 0 400 400" style="enable-background:new 0 0 400 400;" xml:space="preserve">
<style type="text/css">
	.st0{fill:#FFFFFF;}
</style>
<path class="st0" d="M366.7,400H33.3C14.9,400,0,385.1,0,366.7V33.3C0,14.9,14.9,0,33.3,0h333.4C385.1,0,400,14.9,400,33.3v333.4
	C400,385.1,385.1,400,366.7,400z"/>
<g>
	<path class="st0" d="M31,212.4c0.4,0.1,0.8,0.1,1.2,0.2c2.6,0.2,5.1,0.3,7.7,0.6c4.1,0.5,8.2,0.8,12.2,1.7
		c8.3,1.9,13.5,7.1,15.8,15.3c1.3,4.7,1.9,9.6,1.9,14.5c0,30.8,0,61.7,0,92.5c0,4.3,0.4,8.5,1.5,12.7c2.4,10,7.7,17.8,16.9,22.7
		c6.1,3.2,12.7,4.6,19.5,4.6c13.4,0.1,26.7,0.1,40.1,0.1c0.2,0,0.5,0,0.8-0.1c0-8.5,0-17,0-25.6c-0.5,0-0.9,0-1.4,0
		c-9.2,0-18.4,0-27.6,0c-1.4,0-2.8-0.1-4.2-0.2c-6.7-0.7-11.3-4.5-12.8-11.1c-0.6-2.4-0.8-4.9-0.8-7.4c-0.1-30.2,0-60.4-0.1-90.6
		c0-3.6-0.3-7.2-0.8-10.7c-2.1-12.6-8.9-22.2-20.1-28.4c-2.4-1.3-5-2.2-7.5-3.2c-0.1,0,0,0,0.1,0c0.2-0.1,0.4-0.1,0.6-0.2
		c11.4-3.4,19.2-10.8,24.1-21.4c2.7-6,3.7-12.4,3.7-18.9c0-30.5,0-61,0-91.5c0-1.9,0.1-3.8,0.4-5.6c0.7-4.9,2.8-9,7.4-11.4
		c2.7-1.4,5.6-1.9,8.6-1.9c9.6,0,19.3,0,28.9,0c0.5,0,0.9,0,1.4,0c0-8.6,0-17.1,0-25.7c-0.4,0-0.7,0-0.9,0c-13,0-26-0.1-39,0.1
		c-4,0.1-8.1,0.6-12,1.5c-10.6,2.5-18.5,8.7-23,18.7c-2.8,6.3-3.8,12.9-3.8,19.7c0,30.7,0,61.4-0.1,92c0,3.7-0.4,7.4-1,11.1
		c-0.7,4.5-2.2,8.7-5.2,12.2c-3.2,3.8-7.5,6-12.3,6.8c-4.9,0.9-9.9,1.2-14.9,1.7c-1.8,0.2-3.6,0.3-5.4,0.4
		C31,195.9,31,204.1,31,212.4z M375.8,187.6c-1.9-0.1-3.7-0.2-5.5-0.4c-4.6-0.5-9.2-0.7-13.7-1.5c-10.1-1.8-16.2-7.8-18.3-17.9
		c-0.9-4.4-1.3-8.8-1.3-13.2c0-30.3,0-60.6-0.1-91c0-3.8-0.4-7.7-1.1-11.4c-1.7-9.1-6-16.8-13.8-22.2c-6.7-4.6-14.3-6.5-22.3-6.6
		c-13.6-0.2-27.2-0.1-40.8-0.1c-0.2,0-0.5,0-0.7,0.1c0,8.6,0,17.1,0,25.6c0.6,0,1.1,0,1.5,0c9.3,0,18.6,0,28,0
		c1.4,0,2.7,0.1,4.1,0.3c6.4,0.9,10.8,4.6,12.3,10.8c0.5,2.1,0.8,4.4,0.8,6.6c0.1,30.4,0,60.8,0.1,91.2c0,3.7,0.3,7.5,1,11.2
		c2.4,13,9.6,22.6,21.4,28.6c2,1,4.1,1.6,6.2,2.4c-0.2,0.1-0.4,0.2-0.6,0.2c-10.4,3-17.9,9.6-23.1,18.9c-3.7,6.8-5,14.2-5,21.9
		c0,30.5,0,61,0,91.6c0,1.6,0,3.3-0.2,4.9c-0.8,6.2-3.6,11-9.8,12.9c-2.3,0.7-4.7,1-7.1,1.1c-9.4,0.1-18.8,0-28.2,0
		c-0.5,0-0.9,0-1.4,0c0,8.7,0,17.1,0,25.6c0.3,0,0.5,0,0.7,0c12.9,0,25.8,0.1,38.8-0.1c4-0.1,8.2-0.6,12.1-1.4
		c11.5-2.6,19.7-9.4,24.1-20.6c2.2-5.6,3.1-11.5,3.1-17.5c0-29.9,0-59.8,0-89.6c0-3.2,0-6.5,0.4-9.7c0.5-3.5,1.2-7,2.2-10.3
		c2.5-7.7,8.3-11.9,15.9-13.5c4.8-1,9.7-1.2,14.6-1.8c1.8-0.2,3.6-0.3,5.5-0.4C375.8,204.1,375.8,196,375.8,187.6z"/>
	<path d="M31,212.4c0-8.3,0-16.5,0-24.8c1.8-0.1,3.6-0.2,5.4-0.4c5-0.5,10-0.9,14.9-1.7c4.8-0.9,9.1-3,12.3-6.8
		c3-3.5,4.5-7.7,5.2-12.2c0.6-3.7,1-7.4,1-11.1c0.1-30.7,0-61.4,0.1-92c0-6.8,1-13.5,3.8-19.7c4.5-10.1,12.4-16.2,23-18.7
		c3.9-0.9,8-1.4,12-1.5c13-0.2,26-0.1,39-0.1c0.3,0,0.6,0,0.9,0c0,8.6,0,17,0,25.7c-0.5,0-0.9,0-1.4,0c-9.6,0-19.3,0-28.9,0
		c-3,0-5.9,0.5-8.6,1.9c-4.6,2.4-6.7,6.5-7.4,11.4c-0.3,1.9-0.4,3.7-0.4,5.6c0,30.5,0,61,0,91.5c0,6.5-1,12.9-3.7,18.9
		c-4.9,10.6-12.7,18-24.1,21.4c-0.2,0.1-0.4,0.1-0.6,0.2c-0.1,0-0.1,0.1-0.1,0c2.5,1,5.1,1.9,7.5,3.2c11.2,6.3,17.9,15.8,20.1,28.4
		c0.6,3.5,0.8,7.2,0.8,10.7c0.1,30.2,0,60.4,0.1,90.6c0,2.5,0.2,5,0.8,7.4c1.5,6.6,6,10.4,12.8,11.1c1.4,0.1,2.8,0.2,4.2,0.2
		c9.2,0,18.4,0,27.6,0c0.4,0,0.9,0,1.4,0c0,8.6,0,17.1,0,25.6c-0.3,0-0.5,0.1-0.8,0.1c-13.4,0-26.7,0.1-40.1-0.1
		c-6.8-0.1-13.4-1.4-19.5-4.6c-9.2-4.9-14.5-12.7-16.9-22.7c-1-4.2-1.4-8.4-1.5-12.7c0-30.8,0-61.7,0-92.5c0-4.9-0.6-9.7-1.9-14.5
		c-2.3-8.2-7.6-13.4-15.8-15.3c-4-0.9-8.1-1.2-12.2-1.7c-2.5-0.3-5.1-0.4-7.7-0.6C31.9,212.5,31.5,212.5,31,212.4z"/>
	<path d="M375.8,187.6c0,8.3,0,16.5,0,24.9c-1.9,0.1-3.7,0.2-5.5,0.4c-4.9,0.5-9.8,0.8-14.6,1.8c-7.7,1.5-13.4,5.8-15.9,13.5
		c-1.1,3.3-1.8,6.8-2.2,10.3c-0.4,3.2-0.4,6.5-0.4,9.7c0,29.9,0,59.8,0,89.6c0,6-0.9,11.9-3.1,17.5c-4.4,11.1-12.6,17.9-24.1,20.6
		c-3.9,0.9-8.1,1.4-12.1,1.4c-12.9,0.2-25.8,0.1-38.8,0.1c-0.2,0-0.4,0-0.7,0c0-8.5,0-17,0-25.6c0.4,0,0.9,0,1.4,0
		c9.4,0,18.8,0.1,28.2,0c2.4,0,4.8-0.4,7.1-1.1c6.2-1.9,9-6.7,9.8-12.9c0.2-1.6,0.2-3.3,0.2-4.9c0-30.5,0-61,0-91.6
		c0-7.6,1.2-15.1,5-21.9c5.1-9.4,12.6-16,23.1-18.9c0.2-0.1,0.4-0.1,0.6-0.2c-2.1-0.8-4.3-1.4-6.2-2.4c-11.8-6-19-15.6-21.4-28.6
		c-0.7-3.7-1-7.5-1-11.2c-0.1-30.4,0-60.8-0.1-91.2c0-2.2-0.3-4.5-0.8-6.6c-1.5-6.2-5.9-9.9-12.3-10.8c-1.3-0.2-2.7-0.3-4.1-0.3
		c-9.3,0-18.6,0-28,0c-0.5,0-1,0-1.5,0c0-8.6,0-17,0-25.6c0.2,0,0.4-0.1,0.7-0.1c13.6,0,27.2-0.1,40.8,0.1c8,0.1,15.6,2,22.3,6.6
		c7.8,5.4,12.1,13.1,13.8,22.2c0.7,3.7,1.1,7.6,1.1,11.4c0.1,30.3,0,60.6,0.1,91c0,4.4,0.4,8.8,1.3,13.2
		c2.1,10.1,8.2,16.1,18.3,17.9c4.5,0.8,9.1,1,13.7,1.5C372.1,187.4,373.9,187.5,375.8,187.6z"/>
</g>
<g>
	<path d="M106.9,209.5c0-6.2,0-12.3,0-18.6c2.3-0.2,4.6-0.3,6.9-0.5c3-0.3,6.1-0.6,9-1.3c7.2-1.7,11.1-6.5,12.3-13.6
		c0.5-3.1,0.8-6.3,0.9-9.4c0.1-22.9,0-45.8,0-68.8c0-4.8,0.7-9.5,2.6-13.9c3.7-8.8,10.6-13.6,19.8-15.1c2.9-0.5,5.9-0.7,8.8-0.7
		c8.8-0.1,17.5,0,26.3,0c0.5,0,0.9,0,1.5,0c0,6.4,0,12.8,0,19.3c-0.4,0-0.9,0-1.4,0c-6.6,0-13.2,0-19.8,0c-1.7,0-3.5,0.1-5.2,0.5
		c-4.9,1.1-7.5,4.3-8.3,9.1c-0.2,1.2-0.3,2.5-0.3,3.7c0,22.8,0,45.7,0,68.5c0,5.2-0.6,10.4-2.8,15.2c-3.6,7.8-9.3,13.3-17.5,16
		c-0.3,0.1-0.6,0.2-1.1,0.4c1,0.3,1.7,0.5,2.4,0.8c9.4,3.8,15.5,10.6,17.9,20.4c0.8,3.4,1.2,7,1.2,10.4c0.1,23,0,45.9,0.1,68.9
		c0,1.5,0.2,3,0.5,4.4c1.1,5.1,4.6,8.1,9.8,8.6c1.3,0.1,2.6,0.1,4,0.1c6.4,0,12.9,0,19.3,0c0.5,0,0.9,0,1.5,0c0,6.5,0,12.8,0,19.2
		c-0.4,0-0.7,0.1-1.1,0.1c-9.8,0-19.5,0.1-29.3,0c-5.4-0.1-10.6-1.1-15.3-3.7c-7.5-4.2-11.4-10.9-12.8-19.1
		c-0.4-2.7-0.6-5.4-0.6-8.1c0-22.5,0-45-0.1-67.6c0-3.4-0.4-6.8-1-10.1c-1.5-8-6.6-12.5-14.5-13.7c-4.1-0.6-8.3-0.8-12.5-1.2
		C107.6,209.5,107.3,209.5,106.9,209.5z"/>
	<path d="M211.9,86.8c0-6.5,0-12.8,0-19.3c0.5,0,0.9,0,1.3,0c8.9,0,17.8,0,26.8,0c5.3,0,10.5,0.5,15.4,2.7
		c8.1,3.5,12.8,9.8,14.6,18.3c0.7,3.3,1,6.7,1,10c0.1,23,0,46,0.1,69c0,3,0.5,6.1,1.1,9.1c1.5,7.2,6,11.5,13.1,12.7
		c4.5,0.8,9.1,1,13.7,1.5c0.3,0,0.7,0.1,1.1,0.1c0,6.2,0,12.3,0,18.6c-3.4,0.3-6.7,0.4-10,0.8c-2.6,0.3-5.2,0.8-7.7,1.6
		c-6.1,2-9.2,6.7-10.3,12.7c-0.6,2.9-0.9,5.9-0.9,8.8c-0.1,23,0,45.9,0,68.9c0,4.8-0.5,9.6-2.3,14.1c-3.6,9.2-10.5,14.3-20,15.9
		c-2.8,0.5-5.6,0.7-8.5,0.7c-8.9,0.1-17.8,0-26.8,0c-0.5,0-0.9,0-1.5,0c0-6.4,0-12.8,0-19.3c0.5,0,0.9,0,1.4,0c7,0,14,0,21,0
		c3.6,0,6.9-0.8,9.5-3.6c2.2-2.4,2.8-5.4,3.1-8.5c0.1-0.7,0-1.4,0-2c0-23.1,0-46.2,0-69.2c0-6.8,1.5-13.2,5.5-18.8
		c3.9-5.6,9-9.5,15.9-11.4c-0.2-0.2-0.3-0.3-0.4-0.3c-11.2-3.6-17.7-11.4-20.1-22.8c-0.5-2.6-0.7-5.3-0.8-8c-0.1-22.8,0-45.7,0-68.5
		c0-2.5-0.2-4.9-1.2-7.2c-1.9-4.5-5.5-6.5-10.1-6.6c-7.4-0.2-14.7-0.1-22.1-0.2C213.1,86.8,212.6,86.8,211.9,86.8z"/>
</g>
</svg>
